Normalized EMG Linear Envelopes
nRows=59
nColumns=17

endheader
time	        VM	        VL	        RF	       GRA	        TA	   ADDLONG	   SEMIMEM	      BFLH	        GM	        GL	       TFL	   GLUTMAX	   GLUTMED	      PIRI	    OBTINT	        QF	
4.3025	  0.040680	  0.041478	  0.148066	  0.281182	  0.421309	  0.000000	  0.054528	  0.019995	  0.000000	  0.007652	  0.000000	  0.087522	  0.522157	  0.137012	  0.106890	  0.055035	
4.303	  0.041465	  0.042251	  0.147409	  0.279873	  0.418622	  0.000000	  0.055411	  0.020059	  0.000000	  0.007603	  0.000000	  0.088062	  0.521236	  0.137567	  0.108121	  0.055236	
4.3035	  0.042259	  0.043030	  0.146756	  0.278569	  0.415926	  0.000000	  0.056317	  0.020131	  0.000000	  0.007553	  0.000000	  0.088610	  0.520207	  0.138113	  0.109350	  0.055433	
4.304	  0.043061	  0.043816	  0.146106	  0.277271	  0.413226	  0.000000	  0.057246	  0.020212	  0.000000	  0.007503	  0.000000	  0.089166	  0.519072	  0.138652	  0.110576	  0.055624	
4.3045	  0.043872	  0.044607	  0.145458	  0.275979	  0.410522	  0.000000	  0.058197	  0.020302	  0.000000	  0.007453	  0.000000	  0.089730	  0.517834	  0.139181	  0.111800	  0.055811	
4.305	  0.044690	  0.045405	  0.144810	  0.274693	  0.407817	  0.000000	  0.059171	  0.020401	  0.000000	  0.007404	  0.000000	  0.090304	  0.516496	  0.139702	  0.113020	  0.055992	
4.3055	  0.045517	  0.046208	  0.144163	  0.273413	  0.405112	  0.000000	  0.060167	  0.020510	  0.000000	  0.007354	  0.000000	  0.090888	  0.515060	  0.140215	  0.114236	  0.056168	
4.306	  0.046352	  0.047015	  0.143514	  0.272139	  0.402408	  0.000000	  0.061186	  0.020629	  0.000000	  0.007304	  0.000000	  0.091482	  0.513530	  0.140719	  0.115447	  0.056338	
4.3065	  0.047193	  0.047828	  0.142864	  0.270870	  0.399707	  0.000000	  0.062227	  0.020760	  0.000000	  0.007254	  0.000000	  0.092088	  0.511910	  0.141214	  0.116652	  0.056503	
4.307	  0.048043	  0.048646	  0.142210	  0.269607	  0.397011	  0.000000	  0.063291	  0.020901	  0.000000	  0.007204	  0.000000	  0.092705	  0.510202	  0.141699	  0.117850	  0.056662	
4.3075	  0.048899	  0.049467	  0.141553	  0.268349	  0.394320	  0.000000	  0.064376	  0.021053	  0.000000	  0.007155	  0.000000	  0.093334	  0.508412	  0.142176	  0.119040	  0.056816	
4.308	  0.049762	  0.050293	  0.140891	  0.267096	  0.391637	  0.000000	  0.065485	  0.021217	  0.000000	  0.007105	  0.000000	  0.093975	  0.506541	  0.142643	  0.120222	  0.056965	
4.3085	  0.050632	  0.051122	  0.140223	  0.265849	  0.388963	  0.000000	  0.066615	  0.021394	  0.000000	  0.007055	  0.000000	  0.094630	  0.504595	  0.143101	  0.121394	  0.057107	
4.309	  0.051508	  0.051954	  0.139549	  0.264606	  0.386299	  0.000000	  0.067768	  0.021583	  0.000000	  0.007006	  0.000000	  0.095299	  0.502576	  0.143549	  0.122557	  0.057245	
4.3095	  0.052390	  0.052790	  0.138868	  0.263369	  0.383646	  0.000000	  0.068943	  0.021785	  0.000000	  0.006956	  0.000000	  0.095981	  0.500490	  0.143987	  0.123707	  0.057376	
4.31	  0.053277	  0.053628	  0.138179	  0.262137	  0.381006	  0.000000	  0.070140	  0.022001	  0.000000	  0.006906	  0.000000	  0.096679	  0.498338	  0.144415	  0.124846	  0.057503	
4.3105	  0.054170	  0.054468	  0.137481	  0.260910	  0.378380	  0.000000	  0.071359	  0.022231	  0.000000	  0.006857	  0.000000	  0.097392	  0.496126	  0.144832	  0.125972	  0.057624	
4.311	  0.055068	  0.055310	  0.136774	  0.259688	  0.375769	  0.000000	  0.072600	  0.022475	  0.000000	  0.006807	  0.000000	  0.098120	  0.493857	  0.145239	  0.127083	  0.057740	
4.3115	  0.055971	  0.056153	  0.136058	  0.258472	  0.373175	  0.000000	  0.073863	  0.022734	  0.000000	  0.006758	  0.000000	  0.098865	  0.491535	  0.145634	  0.128179	  0.057850	
4.312	  0.056878	  0.056997	  0.135330	  0.257261	  0.370598	  0.000000	  0.075147	  0.023008	  0.000000	  0.006708	  0.000000	  0.099626	  0.489163	  0.146018	  0.129259	  0.057955	
4.3125	  0.057789	  0.057842	  0.134592	  0.256056	  0.368039	  0.000000	  0.076453	  0.023298	  0.000000	  0.006658	  0.000000	  0.100404	  0.486744	  0.146391	  0.130322	  0.058055	
4.313	  0.058704	  0.058687	  0.133843	  0.254856	  0.365500	  0.000000	  0.077780	  0.023603	  0.000000	  0.006609	  0.000000	  0.101200	  0.484283	  0.146751	  0.131366	  0.058150	
4.3135	  0.059621	  0.059532	  0.133082	  0.253662	  0.362981	  0.000000	  0.079128	  0.023926	  0.000000	  0.006559	  0.000000	  0.102014	  0.481782	  0.147100	  0.132391	  0.058240	
4.314	  0.060542	  0.060376	  0.132309	  0.252474	  0.360482	  0.000000	  0.080497	  0.024265	  0.000000	  0.006510	  0.000000	  0.102846	  0.479245	  0.147436	  0.133396	  0.058325	
4.3145	  0.061465	  0.061218	  0.131525	  0.251291	  0.358006	  0.000000	  0.081887	  0.024621	  0.000000	  0.006460	  0.000000	  0.103697	  0.476675	  0.147760	  0.134379	  0.058406	
4.315	  0.062390	  0.062060	  0.130728	  0.250115	  0.355552	  0.000000	  0.083298	  0.024996	  0.000000	  0.006411	  0.000000	  0.104566	  0.474075	  0.148072	  0.135340	  0.058481	
4.3155	  0.063316	  0.062899	  0.129919	  0.248946	  0.353121	  0.000000	  0.084729	  0.025388	  0.000000	  0.006361	  0.000000	  0.105456	  0.471448	  0.148370	  0.136278	  0.058552	
4.316	  0.064244	  0.063736	  0.129097	  0.247783	  0.350713	  0.000000	  0.086179	  0.025800	  0.000000	  0.006312	  0.000000	  0.106365	  0.468797	  0.148655	  0.137192	  0.058619	
4.3165	  0.065172	  0.064570	  0.128263	  0.246628	  0.348330	  0.000000	  0.087650	  0.026230	  0.000000	  0.006263	  0.000000	  0.107294	  0.466124	  0.148927	  0.138080	  0.058682	
4.317	  0.066099	  0.065400	  0.127416	  0.245481	  0.345970	  0.000000	  0.089140	  0.026680	  0.000000	  0.006213	  0.000000	  0.108244	  0.463432	  0.149185	  0.138942	  0.058740	
4.3175	  0.067027	  0.066227	  0.126556	  0.244341	  0.343636	  0.000000	  0.090649	  0.027150	  0.000000	  0.006164	  0.000000	  0.109215	  0.460724	  0.149430	  0.139778	  0.058795	
4.318	  0.067953	  0.067049	  0.125684	  0.243210	  0.341326	  0.000000	  0.092177	  0.027641	  0.000000	  0.006115	  0.000000	  0.110207	  0.458003	  0.149661	  0.140585	  0.058845	
4.3185	  0.068878	  0.067867	  0.124800	  0.242087	  0.339041	  0.000000	  0.093723	  0.028152	  0.000000	  0.006066	  0.000000	  0.111220	  0.455271	  0.149877	  0.141364	  0.058893	
4.319	  0.069801	  0.068680	  0.123904	  0.240972	  0.336781	  0.000000	  0.095287	  0.028685	  0.000000	  0.006017	  0.000000	  0.112255	  0.452530	  0.150080	  0.142114	  0.058936	
4.3195	  0.070721	  0.069487	  0.122997	  0.239866	  0.334546	  0.000000	  0.096869	  0.029239	  0.000000	  0.005968	  0.000000	  0.113312	  0.449783	  0.150268	  0.142834	  0.058977	
4.32	  0.071637	  0.070288	  0.122079	  0.238769	  0.332336	  0.000000	  0.098468	  0.029816	  0.000000	  0.005919	  0.000000	  0.114391	  0.447032	  0.150442	  0.143523	  0.059014	
4.3205	  0.072550	  0.071083	  0.121150	  0.237682	  0.330152	  0.000000	  0.100085	  0.030415	  0.000000	  0.005870	  0.000000	  0.115493	  0.444278	  0.150603	  0.144181	  0.059049	
4.321	  0.073458	  0.071871	  0.120210	  0.236603	  0.327993	  0.000000	  0.101717	  0.031037	  0.000000	  0.005822	  0.000000	  0.116617	  0.441524	  0.150749	  0.144808	  0.059081	
4.3215	  0.074361	  0.072652	  0.119260	  0.235534	  0.325861	  0.000000	  0.103365	  0.031683	  0.000000	  0.005774	  0.000000	  0.117763	  0.438771	  0.150882	  0.145403	  0.059110	
4.322	  0.075258	  0.073425	  0.118301	  0.234474	  0.323754	  0.000000	  0.105029	  0.032353	  0.000000	  0.005726	  0.000000	  0.118933	  0.436022	  0.151001	  0.145966	  0.059138	
4.3225	  0.076149	  0.074190	  0.117331	  0.233424	  0.321675	  0.000000	  0.106707	  0.033046	  0.000000	  0.005678	  0.000000	  0.120125	  0.433279	  0.151107	  0.146496	  0.059163	
4.323	  0.077033	  0.074946	  0.116353	  0.232385	  0.319624	  0.000000	  0.108400	  0.033765	  0.000000	  0.005630	  0.000000	  0.121341	  0.430543	  0.151199	  0.146994	  0.059186	
4.3235	  0.077908	  0.075694	  0.115366	  0.231355	  0.317602	  0.000000	  0.110106	  0.034508	  0.000000	  0.005583	  0.000000	  0.122580	  0.427817	  0.151278	  0.147458	  0.059207	
4.324	  0.078776	  0.076433	  0.114371	  0.230335	  0.315609	  0.000000	  0.111826	  0.035277	  0.000000	  0.005536	  0.000000	  0.123841	  0.425103	  0.151344	  0.147891	  0.059227	
4.3245	  0.079633	  0.077163	  0.113369	  0.229325	  0.313648	  0.000000	  0.113557	  0.036071	  0.000000	  0.005489	  0.000000	  0.125126	  0.422402	  0.151397	  0.148290	  0.059246	
4.325	  0.080481	  0.077883	  0.112359	  0.228326	  0.311718	  0.000000	  0.115301	  0.036892	  0.000000	  0.005443	  0.000000	  0.126434	  0.419716	  0.151437	  0.148658	  0.059263	
4.3255	  0.081319	  0.078594	  0.111342	  0.227336	  0.309821	  0.000000	  0.117055	  0.037739	  0.000000	  0.005397	  0.000000	  0.127764	  0.417049	  0.151465	  0.148993	  0.059280	
4.326	  0.082144	  0.079295	  0.110320	  0.226357	  0.307958	  0.000000	  0.118821	  0.038613	  0.000000	  0.005352	  0.000000	  0.129118	  0.414401	  0.151480	  0.149296	  0.059295	
4.3265	  0.082958	  0.079985	  0.109291	  0.225388	  0.306130	  0.000000	  0.120595	  0.039514	  0.000000	  0.005307	  0.000000	  0.130494	  0.411774	  0.151484	  0.149568	  0.059310	
4.327	  0.083758	  0.080665	  0.108257	  0.224429	  0.304337	  0.000000	  0.122379	  0.040442	  0.000000	  0.005262	  0.000000	  0.131893	  0.409169	  0.151475	  0.149808	  0.059325	
4.3275	  0.084544	  0.081335	  0.107217	  0.223480	  0.302581	  0.000000	  0.124171	  0.041398	  0.000000	  0.005218	  0.000000	  0.133313	  0.406590	  0.151455	  0.150016	  0.059340	
4.328	  0.085316	  0.081994	  0.106173	  0.222542	  0.300863	  0.000000	  0.125971	  0.042383	  0.000000	  0.005175	  0.000000	  0.134756	  0.404036	  0.151423	  0.150193	  0.059354	
4.3285	  0.086072	  0.082643	  0.105125	  0.221613	  0.299184	  0.000000	  0.127777	  0.043395	  0.000000	  0.005132	  0.000000	  0.136221	  0.401510	  0.151380	  0.150339	  0.059368	
4.329	  0.086812	  0.083281	  0.104072	  0.220695	  0.297543	  0.000000	  0.129589	  0.044437	  0.000000	  0.005090	  0.000000	  0.137707	  0.399012	  0.151324	  0.150454	  0.059383	
4.3295	  0.087536	  0.083908	  0.103016	  0.219787	  0.295942	  0.000000	  0.131406	  0.045507	  0.000000	  0.005048	  0.000000	  0.139215	  0.396546	  0.151258	  0.150539	  0.059398	
4.33	  0.088241	  0.084523	  0.101956	  0.218889	  0.294382	  0.000000	  0.133227	  0.046607	  0.000000	  0.005007	  0.000000	  0.140743	  0.394111	  0.151180	  0.150594	  0.059413	
4.3305	  0.088929	  0.085128	  0.100893	  0.218001	  0.292863	  0.000000	  0.135051	  0.047736	  0.000000	  0.004967	  0.000000	  0.142291	  0.391710	  0.151091	  0.150619	  0.059429	
4.331	  0.089598	  0.085721	  0.099828	  0.217123	  0.291387	  0.000000	  0.136878	  0.048895	  0.000000	  0.004927	  0.000000	  0.143859	  0.389343	  0.150991	  0.150615	  0.059446	
4.3315	  0.090249	  0.086303	  0.098761	  0.216255	  0.289954	  0.000000	  0.138707	  0.050084	  0.000000	  0.004888	  0.000000	  0.145447	  0.387012	  0.150879	  0.150582	  0.059464	
